<svg xmlns="http://www.w3.org/2000/svg" xmlns:xlink="http://www.w3.org/1999/xlink" width="600" height="140" viewBox="0 0 600 140">
  <defs>
    <clipPath id="clip-plass_logo">
      <rect width="600" height="140"/>
    </clipPath>
  </defs>
  <g id="plass_logo" clip-path="url(#clip-plass_logo)">
    <g id="Group_5" data-name="Group 5" transform="translate(4.631 5.059)">
      <path id="Path_1" data-name="Path 1" d="M82.6,34.782a14.658,14.658,0,0,1,0,29.316H48.562V34.782Zm0-29.812H18.75V93.933H82.6a44.482,44.482,0,0,0,0-88.963Z" transform="translate(16.336 1.057)" fill="#009cb7"/>
      <path id="Path_2" data-name="Path 2" d="M94.236,47.486H64.9V18.17H35.086V47.486H5.77V77.321H35.086v29.316H64.9V77.321H94.236Z" transform="translate(0 17.67)" fill="#f4b602"/>
      <path id="Path_3" data-name="Path 3" d="M99.792,93.436V4.97H69.98V123.249h87.2V93.436Z" transform="translate(80.81 1.057)" fill="#009cb7"/>
      <path id="Path_4" data-name="Path 4" d="M214.519,123.249h29.812L189.472,4.97H159.66L104.8,123.249h29.812l10.1-21.75h59.738Zm-58.36-46.48,18.407-39.66,18.407,39.66Z" transform="translate(124.631 1.057)" fill="#009cb7"/>
      <g id="Group_3" data-name="Group 3" transform="translate(361.487 4.13)">
        <path id="Path_5" data-name="Path 5" d="M237.575,83a44.2,44.2,0,0,0-13.37-4.991q-8-1.762-17.436-4.562a154.9,154.9,0,0,1-17.458-6.324,33.444,33.444,0,0,1-13.37-10.547,27.239,27.239,0,0,1-5.375-17.029q0-14.466,14-24.934Q198.593,4.141,220.862,4.13q32.861,0,50.862,21.433l-19.31,16.623q-14.093-13.958-32.681-13.958c-4.878,0-10.592.271-14.884,2.891-3.343,2.055-5.646,6.256-4.269,10.118,1.445,4.088,7.272,5.962,10.976,7.318,13.935,5.059,28.615,6.73,42.325,12.738a33.088,33.088,0,0,1,13.37,10.638,27.339,27.339,0,0,1,5.375,16.939q0,15.787-14.116,26.334-14.127,10.57-35.1,10.547-22.088,0-37.492-7.973T163.27,97.339L184.252,81.71a46.332,46.332,0,0,0,38.44,19.92c6.821,0,11.88-1.016,15.222-3.072s5.014-4.63,5.014-7.724C242.951,87.786,241.166,85.166,237.575,83Z" transform="translate(-163.27 -4.13)" fill="#009cb7"/>
      </g>
      <g id="Group_4" data-name="Group 4" transform="translate(475.61 4.13)">
        <path id="Path_6" data-name="Path 6" d="M288.105,83a44.2,44.2,0,0,0-13.37-4.991q-8-1.762-17.436-4.562a154.9,154.9,0,0,1-17.458-6.324,33.444,33.444,0,0,1-13.37-10.547A27.284,27.284,0,0,1,221.1,39.544q0-14.466,14-24.934Q249.123,4.141,271.392,4.13q32.861,0,50.862,21.433l-19.31,16.623q-14.093-13.958-32.681-13.958c-4.878,0-10.592.271-14.884,2.891-3.343,2.055-5.646,6.256-4.269,10.118,1.445,4.088,7.272,5.962,10.976,7.318,13.935,5.059,28.615,6.73,42.325,12.738a33.089,33.089,0,0,1,13.371,10.638,27.339,27.339,0,0,1,5.375,16.939q0,15.787-14.116,26.334-14.127,10.57-35.1,10.547-22.088,0-37.491-7.973-15.38-7.961-22.653-20.44L234.782,81.71a46.332,46.332,0,0,0,38.44,19.92c6.821,0,11.88-1.016,15.222-3.072s5.014-4.63,5.014-7.724C293.481,87.786,291.7,85.166,288.105,83Z" transform="translate(-213.8 -4.13)" fill="#009cb7"/>
      </g>
    </g>
  </g>
</svg>
